<svg width="1920" height="400" viewBox="0 0 1920 400" fill="none" xmlns="http://www.w3.org/2000/svg">
    <defs>
        <linearGradient id="deepBlueGrad" x1="0%" y1="0%" x2="100%" y2="0%">
            <stop offset="0%" style="stop-color:#1e3a8a;stop-opacity:1" />
            <stop offset="50%" style="stop-color:#2563eb;stop-opacity:1" />
            <stop offset="100%" style="stop-color:#3b82f6;stop-opacity:1" />
        </linearGradient>
        <pattern id="grid" width="40" height="40" patternUnits="userSpaceOnUse">
            <path d="M 40 0 L 0 0 0 40" fill="none" stroke="white" stroke-opacity="0.05" stroke-width="1"/>
        </pattern>
    </defs>

    <!-- Base Background -->
    <rect width="1920" height="400" fill="url(#deepBlueGrad)"/>
    <rect width="1920" height="400" fill="url(#grid)"/>

    <!-- Decorative Elements -->
    <circle cx="1850" cy="50" r="120" fill="white" fill-opacity="0.03"/>
    
    <!-- Clipboard Icon -->
    <g transform="translate(1600, 80) scale(4)" opacity="0.08" stroke="white" stroke-width="2" fill="none">
        <path d="M16 4h2a2 2 0 0 1 2 2v14a2 2 0 0 1-2 2H6a2 2 0 0 1-2-2V6a2 2 0 0 1 2-2h2"/>
        <rect x="8" y="2" width="8" height="4" rx="1" ry="1"/>
        <path d="M9 12 h6"/>
        <path d="M9 16 h6"/>
        <path d="M9 8 h6"/>
    </g>

    <!-- Repair/Support Symbols -->
    <g transform="translate(1450, 180) scale(3)" opacity="0.05" stroke="white" stroke-width="2" fill="none">
         <path d="M14.7 6.3a1 1 0 0 0 0 1.4l1.6 1.6a1 1 0 0 0 1.4 0l3.77-3.77a6 6 0 0 1-7.94 7.94l-6.91 6.91a2.12 2.12 0 0 1-3-3l6.91-6.91a6 6 0 0 1 7.94-7.94l-3.76 3.76z"/>
    </g>

    <text x="1750" y="250" font-family="Arial" font-size="80" fill="white" fill-opacity="0.04">+</text>
</svg>
