<svg width="1920" height="400" viewBox="0 0 1920 400" fill="none" xmlns="http://www.w3.org/2000/svg">
    <defs>
        <linearGradient id="deepBlueGrad" x1="0%" y1="0%" x2="100%" y2="0%">
            <stop offset="0%" style="stop-color:#1e3a8a;stop-opacity:1" />
            <stop offset="50%" style="stop-color:#2563eb;stop-opacity:1" />
            <stop offset="100%" style="stop-color:#3b82f6;stop-opacity:1" />
        </linearGradient>
        <pattern id="grid" width="40" height="40" patternUnits="userSpaceOnUse">
            <path d="M 40 0 L 0 0 0 40" fill="none" stroke="white" stroke-opacity="0.05" stroke-width="1"/>
        </pattern>
    </defs>
    
    <!-- Base Background -->
    <rect width="1920" height="400" fill="url(#deepBlueGrad)"/>
    <rect width="1920" height="400" fill="url(#grid)"/>

    <!-- Decorative Circles -->
    <circle cx="1800" cy="50" r="150" fill="white" fill-opacity="0.03"/>
    <circle cx="100" cy="350" r="100" fill="white" fill-opacity="0.03"/>

    <!-- Document Icon Elements -->
    <g transform="translate(1600, 100) scale(4)" opacity="0.08" stroke="white" stroke-width="2" fill="none">
        <path d="M14 2H6a2 2 0 0 0-2 2v16a2 2 0 0 0 2 2h12a2 2 0 0 0 2-2V7.5L14 2z"/>
        <polyline points="14 2 14 8 20 8"/>
        <line x1="16" y1="13" x2="8" y2="13"/>
        <line x1="16" y1="17" x2="8" y2="17"/>
        <line x1="10" y1="9" x2="8" y2="9"/>
    </g>

    <!-- Calculation/Math Symbols -->
    <text x="1500" y="150" font-family="Arial" font-size="64" fill="white" fill-opacity="0.05">%</text>
    <text x="1450" y="250" font-family="Arial" font-size="64" fill="white" fill-opacity="0.05">+</text>
    <rect x="1550" y="200" width="40" height="60" rx="5" stroke="white" stroke-opacity="0.05" stroke-width="2" fill="none"/>
</svg>
