<svg width="1920" height="400" viewBox="0 0 1920 400" fill="none" xmlns="http://www.w3.org/2000/svg">
    <defs>
        <linearGradient id="deepBlueGrad" x1="0%" y1="0%" x2="100%" y2="0%">
            <stop offset="0%" style="stop-color:#1e3a8a;stop-opacity:1" />
            <stop offset="50%" style="stop-color:#2563eb;stop-opacity:1" />
            <stop offset="100%" style="stop-color:#3b82f6;stop-opacity:1" />
        </linearGradient>
        <pattern id="grid" width="40" height="40" patternUnits="userSpaceOnUse">
            <path d="M 40 0 L 0 0 0 40" fill="none" stroke="white" stroke-opacity="0.05" stroke-width="1"/>
        </pattern>
    </defs>

    <!-- Base Background -->
    <rect width="1920" height="400" fill="url(#deepBlueGrad)"/>
    <rect width="1920" height="400" fill="url(#grid)"/>

    <!-- Decorative Elements -->
    <rect x="1750" y="50" width="100" height="100" transform="rotate(15)" fill="white" fill-opacity="0.03"/>
    
    <!-- Survey/Checklist Icon -->
    <g transform="translate(1550, 60) scale(4)" opacity="0.08" stroke="white" stroke-width="2" fill="none">
        <path d="M14 2H6a2 2 0 0 0-2 2v16a2 2 0 0 0 2 2h12a2 2 0 0 0 2-2V7.5L14 2z"/>
        <path d="M12 18h8"/>
        <path d="M12 14h8"/>
        <path d="M12 10h8"/>
        <rect x="8" y="10" width="2" height="2" fill="white" fill-opacity="0.5" stroke="none"/>
        <rect x="8" y="14" width="2" height="2" fill="white" fill-opacity="0.5" stroke="none"/>
        <rect x="8" y="18" width="2" height="2" fill="white" fill-opacity="0.5" stroke="none"/>
    </g>

    <!-- Rating Stars -->
    <g transform="translate(1450, 280) scale(1.5)" fill="white" fill-opacity="0.1">
        <polygon points="12 2 15.09 8.26 22 9.27 17 14.14 18.18 21.02 12 17.77 5.82 21.02 7 14.14 2 9.27 8.91 8.26 12 2"/>
    </g>
    <g transform="translate(1500, 280) scale(1.5)" fill="white" fill-opacity="0.1">
        <polygon points="12 2 15.09 8.26 22 9.27 17 14.14 18.18 21.02 12 17.77 5.82 21.02 7 14.14 2 9.27 8.91 8.26 12 2"/>
    </g>
    <g transform="translate(1550, 280) scale(1.5)" fill="white" fill-opacity="0.1">
        <polygon points="12 2 15.09 8.26 22 9.27 17 14.14 18.18 21.02 12 17.77 5.82 21.02 7 14.14 2 9.27 8.91 8.26 12 2"/>
    </g>

</svg>
